PathFileType	4	(X/Y/Z)	/Users/itak/Documents/Research/Walk-IL/dataset/trc/00557_00009.trc
DataRate	CameraRate	NumFrames	NumMarkers	Units	OrigDataRate	OrigDataStartFrame	OrigNumFrames
100.000000	100.000000	4	53	mm	100.000000	96	385
Frame#	Time	RPSI			LPSI			L3			STRN			T10			C7			CLAV			RBAK			LBAK			LSHO			LUPA			LAEL			LAOL			LWTS			LWPS			LFRA			LIFD			LHPS			LHTS			RSHO			RUPA			RAEL			RAOL			RWTS			RWPS			RFRA			RIFD			RHTS			RHPS			RBHD			LFHD			RFHD			LBHD			LHIP			RHIP			RASI			LASI			LKNE			LTHI			LANK			LTIP			LTOE			LMT1			LMT5			LHEE			RKNE			RTHI			RANK			RTIP			RTOE			RMT1			RMT5			RHEE			
		X1	Y1	Z1	X2	Y2	Z2	X3	Y3	Z3	X4	Y4	Z4	X5	Y5	Z5	X6	Y6	Z6	X7	Y7	Z7	X8	Y8	Z8	X9	Y9	Z9	X10	Y10	Z10	X11	Y11	Z11	X12	Y12	Z12	X13	Y13	Z13	X14	Y14	Z14	X15	Y15	Z15	X16	Y16	Z16	X17	Y17	Z17	X18	Y18	Z18	X19	Y19	Z19	X20	Y20	Z20	X21	Y21	Z21	X22	Y22	Z22	X23	Y23	Z23	X24	Y24	Z24	X25	Y25	Z25	X26	Y26	Z26	X27	Y27	Z27	X28	Y28	Z28	X29	Y29	Z29	X30	Y30	Z30	X31	Y31	Z31	X32	Y32	Z32	X33	Y33	Z33	X34	Y34	Z34	X35	Y35	Z35	X36	Y36	Z36	X37	Y37	Z37	X38	Y38	Z38	X39	Y39	Z39	X40	Y40	Z40	X41	Y41	Z41	X42	Y42	Z42	X43	Y43	Z43	X44	Y44	Z44	X45	Y45	Z45	X46	Y46	Z46	X47	Y47	Z47	X48	Y48	Z48	X49	Y49	Z49	X50	Y50	Z50	X51	Y51	Z51	X52	Y52	Z52	X53	Y53	Z53	

97	0.96	-1454.486328125	1014.202514648438	-435.3216247558594	-1401.556274414062	1015.033752441406	-557.9030151367188	-1421.42138671875	1107.232788085938	-498.55615234375	-1208.056274414062	1289.986572265625	-422.0128784179688	-1434.770874023438	1231.981567382812	-504.9513244628906	-1391.23193359375	1504.882202148438	-472.9852600097656	-1224.439819335938	1400.766235351562	-425.8770141601562	-1490.842041015625	1381.334838867188	-415.5924987792969	-1393.589477539062	1453.17431640625	-572.2599487304688	-1272.339965820312	1476.629760742188	-614.585205078125	-1251.165405273438	1353.192138671875	-695.0173950195312	-1217.92138671875	1133.076904296875	-719.1546630859375	-1318.226928710938	1123.71875	-708.531005859375	-1149.627075195312	889.010986328125	-643.5691528320312	-1159.279418945312	868.7416381835938	-729.3812866210938	-1192.545288085938	1046.70068359375	-719.3689575195312	-1128.951904296875	729.7383422851562	-629.8973999023438	-1151.610961914062	809.1455688476562	-721.5961303710938	-1130.513549804688	808.8118286132812	-649.0771484375	-1387.451171875	1464.319458007812	-307.5440979003906	-1425.830932617188	1399.75439453125	-249.4692230224609	-1430.7333984375	1109.48095703125	-201.6951141357422	-1478.263793945312	1091.693725585938	-240.1233978271484	-1287.15966796875	891.2156372070312	-211.0317840576172	-1344.63623046875	871.6098022460938	-154.65625	-1421.14892578125	1054.509887695312	-191.5964202880859	-1278.469360351562	717.0879516601562	-199.8016510009766	-1262.997924804688	799.802978515625	-189.2282562255859	-1327.164672851562	798.18408203125	-149.9830169677734	-1324.01171875	1684.784912109375	-377.3397827148438	-1126.868286132812	1687.2099609375	-446.1256408691406	-1195.998413085938	1684.470458984375	-318.7694091796875	-1239.18896484375	1685.123291015625	-519.6387939453125	-1237.666015625	932.456787109375	-631.525634765625	-1388.136840820312	941.1259765625	-275.9806518554688	-1284.107788085938	969.9890747070312	-297.1412963867188	-1178.978393554688	959.788818359375	-555.4012451171875	-1256.335205078125	488.3446350097656	-564.5099487304688	-1232.967407226562	653.0802001953125	-599.9144897460938	-1373.848266601562	33.47376251220703	-595.7925415039062	-1336.274047851562	247.3840789794922	-596.2550659179688	-1204.735229492188	33.72822570800781	-457.9063720703125	-1287.088012695312	34.99076461791992	-455.014892578125	-1256.192749023438	34.61008834838867	-557.5751342773438	-1458.752319335938	27.06704521179199	-575.4384765625	-1363.79736328125	496.5102233886719	-302.4529724121094	-1355.99853515625	787.8468627929688	-259.7131958007812	-1471.292114257812	33.60394668579102	-345.1201171875	-1370.108520507812	353.2596435546875	-317.262451171875	-1248.17138671875	35.73794174194336	-313.4435424804688	-1295.623657226562	34.87157821655273	-373.5313110351562	-1350.473876953125	36.98618698120117	-283.8869018554688	-1504.039916992188	18.30847549438477	-412.5161437988281	
98	0.97	-1454.454223632812	1014.109558105469	-435.7550659179688	-1401.463256835938	1014.980346679688	-558.352783203125	-1421.350708007812	1107.345703125	-498.9836730957031	-1207.628051757812	1289.811889648438	-422.3092956542969	-1434.491943359375	1232.079223632812	-505.3807067871094	-1390.552001953125	1504.949951171875	-473.3495483398438	-1223.899291992188	1400.618041992188	-426.1238098144531	-1490.402221679688	1381.507446289062	-416.0616760253906	-1392.894165039062	1453.215942382812	-572.640625	-1271.481201171875	1476.519165039062	-614.8245849609375	-1250.40625	1353.12060546875	-695.3043823242188	-1217.180053710938	1132.927368164062	-719.3588256835938	-1317.485961914062	1123.5849609375	-708.8584594726562	-1149.1748046875	888.7286987304688	-644.2254638671875	-1158.91455078125	868.5709228515625	-730.0162353515625	-1191.92431640625	1046.5126953125	-719.7483520507812	-1128.569580078125	729.3896484375	-630.1923828125	-1151.467651367188	808.95556640625	-722.3624877929688	-1129.6416015625	808.7168579101562	-649.7357788085938	-1386.95068359375	1464.333740234375	-307.9210815429688	-1425.406616210938	1399.828491210938	-249.8580322265625	-1430.411010742188	1109.574340820312	-202.0460357666016	-1477.978759765625	1091.75634765625	-240.4414672851562	-1286.874877929688	891.2946166992188	-211.3170776367188	-1344.343994140625	871.6806640625	-154.9647979736328	-1420.832275390625	1054.603271484375	-191.9180603027344	-1278.255126953125	717.177978515625	-200.0139770507812	-1262.74658203125	799.8533325195312	-189.4745483398438	-1326.929565429688	798.2658081054688	-150.2485046386719	-1323.167602539062	1684.690185546875	-377.6049194335938	-1125.9677734375	1686.86669921875	-446.2916564941406	-1195.198974609375	1684.224975585938	-318.9287109375	-1238.245361328125	1684.979248046875	-519.8558349609375	-1237.520263671875	932.3814697265625	-631.8099975585938	-1388.238037109375	941.118408203125	-276.359619140625	-1284.236206054688	970.00146484375	-297.5181579589844	-1179.05615234375	959.6401977539062	-555.5227661132812	-1255.978881835938	488.3888244628906	-564.590576171875	-1232.5859375	653.0811157226562	-599.9312133789062	-1373.87939453125	33.43508911132812	-595.8062744140625	-1336.026733398438	247.4184265136719	-596.284912109375	-1204.778198242188	33.75892639160156	-457.9021301269531	-1287.108032226562	34.98931884765625	-455.0092163085938	-1256.223510742188	34.62828826904297	-557.5447998046875	-1458.759521484375	27.01048278808594	-575.4722290039062	-1363.313110351562	496.5164489746094	-302.4194030761719	-1355.979736328125	787.8170776367188	-259.986083984375	-1471.347290039062	33.56197738647461	-345.0849914550781	-1369.57763671875	353.1519775390625	-317.249755859375	-1248.172119140625	35.75364303588867	-313.4982299804688	-1295.631713867188	34.87156295776367	-373.5455322265625	-1350.4853515625	37.00088500976562	-283.9044189453125	-1504.051391601562	18.17210960388184	-412.48974609375	
99	0.98	-1454.384155273438	1013.968139648438	-436.1902160644531	-1401.378662109375	1014.914916992188	-558.8138427734375	-1421.28955078125	1107.4697265625	-499.4451293945312	-1207.197387695312	1289.628662109375	-422.5730285644531	-1434.125732421875	1232.125854492188	-505.7888488769531	-1389.820678710938	1505.003540039062	-473.7249450683594	-1223.348266601562	1400.457275390625	-426.3582763671875	-1489.927978515625	1381.670043945312	-416.5534973144531	-1392.123901367188	1453.2421875	-573.0382080078125	-1270.56982421875	1476.4033203125	-615.064453125	-1249.584838867188	1353.02490234375	-695.5892944335938	-1216.382446289062	1132.755493164062	-719.5677490234375	-1316.723510742188	1123.44287109375	-709.2044067382812	-1148.676635742188	888.4564208984375	-644.8331298828125	-1158.442626953125	868.399658203125	-730.590087890625	-1191.230712890625	1046.318725585938	-720.0911254882812	-1128.141235351562	729.0509643554688	-630.4387817382812	-1151.19873046875	808.742919921875	-723.0736083984375	-1128.7236328125	808.6320190429688	-650.3458251953125	-1386.412231445312	1464.352416992188	-308.3187561035156	-1424.964599609375	1399.905639648438	-250.2708129882812	-1430.1025390625	1109.68310546875	-202.3939056396484	-1477.69873046875	1091.841796875	-240.7668914794922	-1286.596313476562	891.3853759765625	-211.6070098876953	-1344.075317382812	871.7586669921875	-155.2695007324219	-1420.533325195312	1054.699584960938	-192.2464752197266	-1278.0185546875	717.273193359375	-200.2786560058594	-1262.4873046875	799.922119140625	-189.7289276123047	-1326.700317382812	798.35595703125	-150.5193634033203	-1322.249267578125	1684.594116210938	-377.8844604492188	-1125.007202148438	1686.482421875	-446.4947509765625	-1194.334350585938	1683.963989257812	-319.0913696289062	-1237.235229492188	1684.79638671875	-520.0850219726562	-1237.355712890625	932.3107299804688	-632.0665283203125	-1388.345458984375	941.0823974609375	-276.7475280761719	-1284.365356445312	969.9957885742188	-297.8908081054688	-1179.140625	959.5042114257812	-555.634033203125	-1255.58984375	488.41015625	-564.6289672851562	-1232.188354492188	653.0853271484375	-599.919189453125	-1373.915649414062	33.38848114013672	-595.8242797851562	-1335.758544921875	247.4592437744141	-596.2879638671875	-1204.82568359375	33.79381942749023	-457.8930053710938	-1287.128784179688	34.98816680908203	-455.0050964355469	-1256.25634765625	34.64624786376953	-557.5139770507812	-1458.775390625	26.95165061950684	-575.5009765625	-1362.6552734375	496.5031127929688	-302.3924865722656	-1355.9130859375	787.7516479492188	-260.3194580078125	-1471.398681640625	33.52099609375	-345.0497436523438	-1368.898681640625	353.0036926269531	-317.2359924316406	-1248.17333984375	35.76876449584961	-313.5544128417969	-1295.63623046875	34.86940765380859	-373.5632629394531	-1350.494262695312	37.0219612121582	-283.92822265625	-1504.077270507812	18.04093742370605	-412.4580993652344	
100	0.99	-1454.288818359375	1013.780395507812	-436.6324768066406	-1401.297119140625	1014.826721191406	-559.287841796875	-1421.225952148438	1107.594360351562	-499.9355163574219	-1206.76708984375	1289.435302734375	-422.7985534667969	-1433.6337890625	1232.091796875	-506.1475219726562	-1389.03759765625	1505.036987304688	-474.1153259277344	-1222.782348632812	1400.281616210938	-426.578369140625	-1489.413208007812	1381.821533203125	-417.06103515625	-1391.279418945312	1453.251342773438	-573.4529418945312	-1269.6044921875	1476.274536132812	-615.308837890625	-1248.68994140625	1352.900634765625	-695.8688354492188	-1215.5390625	1132.55859375	-719.794189453125	-1315.939697265625	1123.291259765625	-709.57861328125	-1148.14306640625	888.1925048828125	-645.3759765625	-1157.857177734375	868.2156982421875	-731.095947265625	-1190.478881835938	1046.12451171875	-720.4012451171875	-1127.677490234375	728.7205810546875	-630.6202392578125	-1150.78955078125	808.5097045898438	-723.719970703125	-1127.770385742188	808.5555419921875	-650.8905639648438	-1385.836547851562	1464.375732421875	-308.7320556640625	-1424.502197265625	1399.982788085938	-250.7054290771484	-1429.808837890625	1109.80224609375	-202.7395629882812	-1477.419921875	1091.946411132812	-241.1105499267578	-1286.3330078125	891.4847412109375	-211.8956756591797	-1343.8330078125	871.8423461914062	-155.5720672607422	-1420.25244140625	1054.797485351562	-192.5812377929688	-1277.755737304688	717.3690185546875	-200.59716796875	-1262.213989257812	800.0097045898438	-190.0028381347656	-1326.474609375	798.4496459960938	-150.8023223876953	-1321.257690429688	1684.493041992188	-378.1812133789062	-1123.981689453125	1686.067016601562	-446.729736328125	-1193.40087890625	1683.687255859375	-319.263916015625	-1236.15771484375	1684.575927734375	-520.3283081054688	-1237.16162109375	932.2489624023438	-632.3037109375	-1388.458740234375	941.0154418945312	-277.1421813964844	-1284.495727539062	969.96875	-298.2522888183594	-1179.2099609375	959.3914184570312	-555.740966796875	-1255.166259765625	488.3982849121094	-564.620849609375	-1231.779907226562	653.0902099609375	-599.8784790039062	-1373.958618164062	33.33316040039062	-595.8472290039062	-1335.4677734375	247.4939727783203	-596.2681884765625	-1204.877319335938	33.83219146728516	-457.8794555664062	-1287.15087890625	34.98737335205078	-455.0027160644531	-1256.28955078125	34.66279983520508	-557.4837036132812	-1458.808959960938	26.89041137695312	-575.5271606445312	-1361.815307617188	496.467041015625	-302.3812561035156	-1355.78955078125	787.6472778320312	-260.716796875	-1471.4423828125	33.48270797729492	-345.0154113769531	-1368.072631835938	352.8172607421875	-317.2178955078125	-1248.177124023438	35.78109741210938	-313.6105346679688	-1295.636108398438	34.86521148681641	-373.5852355957031	-1350.498779296875	37.04957962036133	-283.9598693847656	-1504.120239257812	17.92782020568848	-412.4233093261719	
